<svg width="1024" height="1024" viewBox="0 0 1024 1024" fill="none" xmlns="http://www.w3.org/2000/svg">
  <path d="M690.36 352.96c1.04,0 2.08,0 3.12,0 7.56,0.12 14.28,0.92 21.44,3.48 1.12,0.36 2.2,0.76 3.36,1.12 23.2,8.28 40.4,24.08 51.08,46.2 10.04,23.28 9.24,48.08 0.32,71.48 -9.04,20.24 -25,36.52 -45.4,45.2 -21.68,8.08 -44,9.84 -65.56,0.28 -22.08,-10.24 -38.24,-26.28 -47.52,-48.92 -1.6,-4.88 -3,-9.8 -4.24,-14.8 -0.2,-0.84 -0.4,-1.64 -0.64,-2.48 -3.64,-23.88 2.6,-47.4 16.36,-66.96 16.2,-21.28 40.76,-34.8 67.68,-34.6z" fill="#010101" />
</svg>